<svg id="Layer_1" data-name="Layer 1" xmlns="http://www.w3.org/2000/svg" viewBox="0 0 1440 720"><defs><style>.cls-1{fill:#919191;}.cls-2{fill:#ed2224;}.cls-3{fill:#f69e1d;}.cls-4{fill:#19ac5b;}.cls-5{fill:#8150a0;}.cls-6{fill:#347fc2;}</style></defs><title>Agoda_logo</title><path class="cls-1" d="M557.48,225V332.31a112.19,112.19,0,0,1-3.93,31.63A50.91,50.91,0,0,1,541,385.85a53.37,53.37,0,0,1-22.64,12.86,123.3,123.3,0,0,1-34.83,4.19,101.33,101.33,0,0,1-34.1-5.33,58.8,58.8,0,0,1-23.11-13.85,25.11,25.11,0,0,1-8.12-17.38,14.25,14.25,0,0,1,4.59-11,15.66,15.66,0,0,1,11.12-4.26,18.16,18.16,0,0,1,14.19,7.19l6.13,7.39a35.68,35.68,0,0,0,7.06,6.66,27.86,27.86,0,0,0,9.25,3.93A53.86,53.86,0,0,0,483,377.59a50.22,50.22,0,0,0,22.24-4,22.66,22.66,0,0,0,11.05-11.19A44.33,44.33,0,0,0,520,347.09q.54-8.19.8-26.63a60.52,60.52,0,0,1-20,18.11,53.75,53.75,0,0,1-26.63,6.19,55.9,55.9,0,0,1-32.24-9.59,60.25,60.25,0,0,1-21.31-26.64,98,98,0,0,1-7.46-39.35,93.34,93.34,0,0,1,4.53-30,62.59,62.59,0,0,1,12.92-22.57A55.14,55.14,0,0,1,450,202.65,61,61,0,0,1,474.1,198a58.37,58.37,0,0,1,27.17,6,66.54,66.54,0,0,1,21.38,18.85v-5a21.56,21.56,0,0,1,4.73-14.92,15.66,15.66,0,0,1,12.18-5.26,14.4,14.4,0,0,1,14.19,6.66,45.9,45.9,0,0,1,3.53,20m-107,46.62a51,51,0,0,0,9.79,34,31.74,31.74,0,0,0,25.37,11.52,33.23,33.23,0,0,0,17.38-4.93,35.92,35.92,0,0,0,13.32-14.85,52.15,52.15,0,0,0,5.13-24.1,55.5,55.5,0,0,0-9.92-35.17,31.69,31.69,0,0,0-26.18-12.58,30.74,30.74,0,0,0-25.37,12.05A54.13,54.13,0,0,0,450.26,271"/><path class="cls-1" d="M793.43,273.11a87.22,87.22,0,0,1-5.2,30.43,66.84,66.84,0,0,1-14.85,24,65.78,65.78,0,0,1-23.31,15.39,82.11,82.11,0,0,1-30.43,5.33,80,80,0,0,1-30.17-5.4,66.58,66.58,0,0,1-38.09-39.29,93.83,93.83,0,0,1,0-61.07,66.65,66.65,0,0,1,14.78-23.84,65.1,65.1,0,0,1,23.24-15.25,88.31,88.31,0,0,1,60.61,0,66.07,66.07,0,0,1,23.37,15.45,67.06,67.06,0,0,1,14.85,23.77A87.42,87.42,0,0,1,793.29,273m-37.09,0a55.32,55.32,0,0,0-9.92-35.16,32.28,32.28,0,0,0-26.64-12.59,33.28,33.28,0,0,0-19.11,5.59,35.57,35.57,0,0,0-12.72,16.59,75,75,0,0,0,0,50.88,35.88,35.88,0,0,0,12.52,16.84,32.58,32.58,0,0,0,19.31,5.73,32.17,32.17,0,0,0,26.64-12.65,55.15,55.15,0,0,0,9.92-35"/><path class="cls-1" d="M991.68,327.05v-3.66A93.71,93.71,0,0,1,977,337.24a55.07,55.07,0,0,1-15.71,8.12,59.1,59.1,0,0,1-18.52,2.8,54.76,54.76,0,0,1-24.57-5.59,57.56,57.56,0,0,1-19.58-16.05A72.94,72.94,0,0,1,886.13,302a103.85,103.85,0,0,1-4.26-30.44q0-34.62,16.91-54a56.29,56.29,0,0,1,44.49-19.38,59.56,59.56,0,0,1,26.64,5.47,75,75,0,0,1,21.37,16.84V166a27.52,27.52,0,0,1,4.53-17.18,15.39,15.39,0,0,1,12.92-5.8,16.1,16.1,0,0,1,12.92,5.33,23.83,23.83,0,0,1,4.53,15.78v162.9a22.58,22.58,0,0,1-4.86,15.85,17.38,17.38,0,0,1-25.11-.2,22.66,22.66,0,0,1-4.93-15.65m-72.65-54.28a63.12,63.12,0,0,0,4.66,25.58,35.61,35.61,0,0,0,12.79,15.91,31.45,31.45,0,0,0,17.71,5.33,32.79,32.79,0,0,0,17.78-5.06,34.88,34.88,0,0,0,12.85-15.59,62.6,62.6,0,0,0,4.8-26.17,61.18,61.18,0,0,0-4.8-25.37,38,38,0,0,0-13.31-16.25,31.09,31.09,0,0,0-17.92-5.66,30.19,30.19,0,0,0-18.11,5.79,36.65,36.65,0,0,0-12.39,16.52,65.56,65.56,0,0,0-4.4,25"/><path class="cls-1" d="M1219.11,327.31A113.58,113.58,0,0,1,1193.2,343a72.47,72.47,0,0,1-28.1,5.2,53.36,53.36,0,0,1-25-5.59,40.75,40.75,0,0,1-16.59-15.26,39.4,39.4,0,0,1-5.86-20.84,37.29,37.29,0,0,1,9.59-25.84,48.08,48.08,0,0,1,26.64-14.38l17.45-3.67q13.92-2.79,23.91-5.19t21.58-5.73a38.8,38.8,0,0,0-5.86-21.44q-5.21-6.66-21.58-6.66a44.86,44.86,0,0,0-21.18,3.93A34.47,34.47,0,0,0,1156,239.27a110.47,110.47,0,0,1-7.19,10.33,11.81,11.81,0,0,1-9,2.53,15.82,15.82,0,0,1-10.79-4,13.31,13.31,0,0,1-4.53-10.19,31.44,31.44,0,0,1,6.66-19,49.58,49.58,0,0,1,21.51-15.11,96.78,96.78,0,0,1,36.37-6,102.82,102.82,0,0,1,38.29,5.73,35.59,35.59,0,0,1,20,18.18,79.85,79.85,0,0,1,5.72,33.3v42a74.38,74.38,0,0,0,3.47,21.71,68.4,68.4,0,0,1,3.46,14.52,13.34,13.34,0,0,1-5.39,10.39,17.82,17.82,0,0,1-12.12,4.66,16.25,16.25,0,0,1-11.26-5.33,79.54,79.54,0,0,1-11.79-15.52M1217,274.24a187.41,187.41,0,0,1-23.64,6.26c-10.33,2.2-17.45,3.86-21.45,4.86a29,29,0,0,0-11.38,6.06,15.57,15.57,0,0,0-5.4,12.65,18.76,18.76,0,0,0,6.66,14.25,23.54,23.54,0,0,0,16.65,5.86,43.25,43.25,0,0,0,20-4.79A32.15,32.15,0,0,0,1211.72,307a56.75,56.75,0,0,0,5-27.63Z"/><path class="cls-1" d="M281.5,327.31a113.7,113.7,0,0,1-26,15.65,72.47,72.47,0,0,1-28.1,5.2,53.33,53.33,0,0,1-25-5.59,41,41,0,0,1-16.59-15.26A39.57,39.57,0,0,1,180,306.47a37.29,37.29,0,0,1,9.59-25.84,48.11,48.11,0,0,1,26.64-14.38l17.45-3.67q13.92-2.79,23.9-5.19t21.58-5.73a38.45,38.45,0,0,0-5.86-21.44q-5.19-6.66-21.58-6.66a44.82,44.82,0,0,0-21.17,3.93,34.47,34.47,0,0,0-12.19,11.78c-3.4,5.2-5.79,8.66-7.19,10.33a11.82,11.82,0,0,1-9,2.53,15.81,15.81,0,0,1-10.79-4,13.31,13.31,0,0,1-4.53-10.19,31.44,31.44,0,0,1,6.66-19,49.33,49.33,0,0,1,22-15.31,96.84,96.84,0,0,1,36.42-6,102.85,102.85,0,0,1,38.3,5.73,35.65,35.65,0,0,1,20,18.18,79.85,79.85,0,0,1,5.72,33.3v42a74,74,0,0,0,3.47,21.71,68.4,68.4,0,0,1,3.46,14.52,13.67,13.67,0,0,1-5.33,10.39,17.91,17.91,0,0,1-12.12,4.66,16.23,16.23,0,0,1-11.25-5.33,79.15,79.15,0,0,1-11.79-15.52M280,274a186.38,186.38,0,0,1-23.57,6.26c-10.33,2.2-17.52,3.86-21.45,4.86a29.08,29.08,0,0,0-11.39,6.06,15.52,15.52,0,0,0-5.39,12.65,18.76,18.76,0,0,0,6.66,14.25A23.54,23.54,0,0,0,241.48,324a43.25,43.25,0,0,0,20-4.79,32.15,32.15,0,0,0,13.32-12.39,56.75,56.75,0,0,0,5-27.63Z"/><circle class="cls-2" cx="251" cy="506.19" r="70.79" transform="translate(-271.71 720.68) rotate(-85.93)"/><circle class="cls-3" cx="485.42" cy="506.19" r="70.79"/><circle class="cls-4" cx="719.84" cy="506.19" r="70.79"/><circle class="cls-5" cx="954.32" cy="506.19" r="70.79"/><circle class="cls-6" cx="1188.74" cy="506.19" r="70.79"/></svg>